<svg id="Capa_1" data-name="Capa 1" xmlns="http://www.w3.org/2000/svg" viewBox="0 0 396 103"><defs><style>.cls-1{fill:#e4e138;}</style></defs><polygon class="cls-1" points="360.94 3.41 325.27 96.38 324.87 96.38 289.8 3.41 254.14 3.41 310.85 145.27 335.89 145.27 394.4 3.41 360.94 3.41"/><path class="cls-1" d="M174.2,42.2l.55-.62A38.79,38.79,0,0,1,204.1,28.66a37.78,37.78,0,0,1,15.53,3A30.75,30.75,0,0,1,231,40.28l24-19.64a48.56,48.56,0,0,0-10.42-9.82,57.16,57.16,0,0,0-12.12-6.41A67.55,67.55,0,0,0,219.63.91,74.57,74.57,0,0,0,207.11-.2,87.39,87.39,0,0,0,176.45,5c-.79.3-1.57.6-2.34.91L174,6l0,36.41Z"/><path class="cls-1" d="M80.85,96h-.4L47.79,3.41H.5V145.27H31.76V36.47h.4L68,145.27H91.87l37.27-108.8h.4V81c0,32.2,31.26,54.39,31.26,54.39V3.41H113.71Z"/></svg>