<svg id="Capa_1" data-name="Capa 1" xmlns="http://www.w3.org/2000/svg" viewBox="0 0 500 124"><defs><style>.cls-1{fill:#e4e138;}.cls-2{fill:#fff;}</style></defs><polygon class="cls-1" points="266.95 10.39 240.58 79.11 240.28 79.11 214.36 10.39 188 10.39 229.92 115.26 248.43 115.26 291.68 10.39 266.95 10.39"/><path class="cls-1" d="M128.91,39.06c.13-.15.26-.31.4-.46A28.72,28.72,0,0,1,151,29.05a27.89,27.89,0,0,1,11.48,2.22,22.84,22.84,0,0,1,8.37,6.37l17.77-14.51a35.43,35.43,0,0,0-7.7-7.26,41.78,41.78,0,0,0-9-4.74,49.3,49.3,0,0,0-9.47-2.59,54.85,54.85,0,0,0-9.26-.82,64.79,64.79,0,0,0-22.67,3.85c-.58.22-1.16.44-1.73.68l-.05,0,0,26.91Z"/><path class="cls-1" d="M162.85,93.63a26,26,0,0,1-12.58,3,27.16,27.16,0,0,1-11.63-2.51,28.58,28.58,0,0,1-9.41-7l-.4-.46-.07,26.79c.6.24,1.2.48,1.8.7a64.57,64.57,0,0,0,22.67,3.85,52.25,52.25,0,0,0,21-4.44A40.11,40.11,0,0,0,191.15,99.7L171.89,85.34A25,25,0,0,1,162.85,93.63Z"/><path class="cls-1" d="M59.9,78.82h-.3L35.46,10.39H.5V115.25H23.61V34.83h.29l26.52,80.43H68L95.6,34.83h.29V67.77C95.89,91.58,119,108,119,108V10.39H84.19Z"/><path class="cls-2" d="M294.31,56.59h2.11l3.32,7.92h.06l3.3-7.92h2.11V67.05h-1.42v-8.6h0l-3.53,8.6h-.94l-3.53-8.6h0v8.6h-1.42Z"/><path class="cls-2" d="M312.84,56.59h6.74v1.33h-5.32V61h5v1.33h-5v3.35h5.59v1.33h-7Z"/><path class="cls-2" d="M326.91,56.59h3.67a4.3,4.3,0,0,1,1.65.28,2.74,2.74,0,0,1,1,.69,2.28,2.28,0,0,1,.52.95,3.58,3.58,0,0,1,.15,1,2.85,2.85,0,0,1-.17,1,2.78,2.78,0,0,1-.51.84,2.75,2.75,0,0,1-.82.64,2.85,2.85,0,0,1-1.07.32l3,4.77h-1.77l-2.66-4.61h-1.58v4.61h-1.41Zm1.41,4.61h1.86a4.47,4.47,0,0,0,.82-.07,2.16,2.16,0,0,0,.73-.24,1.29,1.29,0,0,0,.5-.51,2,2,0,0,0,0-1.73,1.29,1.29,0,0,0-.5-.51,2.41,2.41,0,0,0-.73-.24,5.55,5.55,0,0,0-.82-.07h-1.86Z"/><path class="cls-2" d="M348.25,58.85a2.86,2.86,0,0,0-1.12-.88,3.28,3.28,0,0,0-1.4-.31,3.75,3.75,0,0,0-1.6.33,3.59,3.59,0,0,0-1.23.91,4.11,4.11,0,0,0-.79,1.35,4.74,4.74,0,0,0-.28,1.66,4.49,4.49,0,0,0,.27,1.56,3.75,3.75,0,0,0,.76,1.3,3.67,3.67,0,0,0,1.23.89,4.07,4.07,0,0,0,1.64.32,3.24,3.24,0,0,0,1.58-.37,3.41,3.41,0,0,0,1.15-1l1.19.9a4.13,4.13,0,0,1-.41.46,4,4,0,0,1-.78.61,5.64,5.64,0,0,1-1.18.53,5,5,0,0,1-1.58.23,5.25,5.25,0,0,1-2.24-.47,5.36,5.36,0,0,1-2.77-3,5.53,5.53,0,0,1-.37-2,6.28,6.28,0,0,1,.4-2.24,5.39,5.39,0,0,1,1.12-1.77,4.93,4.93,0,0,1,1.72-1.16,5.84,5.84,0,0,1,2.21-.41,5.32,5.32,0,0,1,2,.4A3.75,3.75,0,0,1,349.43,58Z"/><path class="cls-2" d="M356.41,56.59h1.42v4.34h5.42V56.59h1.42V67.05h-1.42V62.26h-5.42v4.79h-1.42Z"/><path class="cls-2" d="M375.68,56.59H377l4.47,10.46h-1.65l-1-2.59h-5l-1,2.59h-1.66Zm2.54,6.63-2-4.8h0l-2,4.8Z"/><path class="cls-2" d="M387.84,56.59h1.86l5.76,8.59h0V56.59h1.42V67.05H395.1l-5.81-8.6h0v8.6h-1.42Z"/><path class="cls-2" d="M404.4,56.59h3.65a6.65,6.65,0,0,1,1.94.26,5,5,0,0,1,1.45.67,4.46,4.46,0,0,1,1,1,5.34,5.34,0,0,1,.64,1.13,6,6,0,0,1,.34,1.15,5.82,5.82,0,0,1,.1,1.06,5.15,5.15,0,0,1-.37,1.94,4.83,4.83,0,0,1-1.09,1.67,5.25,5.25,0,0,1-1.79,1.17,6.38,6.38,0,0,1-2.48.45H404.4Zm1.42,9.13h1.79a5.87,5.87,0,0,0,1.7-.25,3.94,3.94,0,0,0,1.41-.73,3.52,3.52,0,0,0,1-1.22,3.77,3.77,0,0,0,.35-1.7,4.86,4.86,0,0,0-.16-1.17,3.51,3.51,0,0,0-.61-1.28,3.7,3.7,0,0,0-1.25-1,4.41,4.41,0,0,0-2.06-.42h-2.13Z"/><path class="cls-2" d="M420.63,56.59H422V67.05h-1.41Z"/><path class="cls-2" d="M430.09,64.86a2.3,2.3,0,0,0,1,.85,3,3,0,0,0,1.23.27,2.69,2.69,0,0,0,.73-.11,2.1,2.1,0,0,0,.67-.33,1.85,1.85,0,0,0,.49-.55,1.39,1.39,0,0,0,.19-.75,1.11,1.11,0,0,0-.38-.92,3.31,3.31,0,0,0-.95-.53c-.38-.15-.8-.28-1.24-.42a4.78,4.78,0,0,1-1.24-.55,3,3,0,0,1-.95-1,2.94,2.94,0,0,1-.39-1.62,2.76,2.76,0,0,1,.2-1,2.63,2.63,0,0,1,.63-1,3.43,3.43,0,0,1,1.1-.71,3.93,3.93,0,0,1,1.61-.29,5.85,5.85,0,0,1,1.64.23,2.83,2.83,0,0,1,1.37,1l-1.15,1a1.87,1.87,0,0,0-.75-.66,2.33,2.33,0,0,0-1.11-.25,2.77,2.77,0,0,0-1,.15,2,2,0,0,0-.63.4,1.63,1.63,0,0,0-.33.52,1.72,1.72,0,0,0-.09.52,1.31,1.31,0,0,0,.38,1,3,3,0,0,0,.95.58,11.35,11.35,0,0,0,1.24.39,5.45,5.45,0,0,1,1.24.5,2.87,2.87,0,0,1,.95.85,2.51,2.51,0,0,1,.39,1.49,3.19,3.19,0,0,1-.29,1.36,3,3,0,0,1-.77,1,3.44,3.44,0,0,1-1.16.64,4.34,4.34,0,0,1-1.41.22,5.31,5.31,0,0,1-1.91-.35,3.14,3.14,0,0,1-1.43-1.1Z"/><path class="cls-2" d="M443,56.59h1.42V67.05H443Z"/><path class="cls-2" d="M452.18,56.59H454l5.76,8.59h0V56.59h1.42V67.05h-1.8l-5.82-8.6h0v8.6h-1.42Z"/><path class="cls-2" d="M477.89,61.2v5.15a4.2,4.2,0,0,1-.88.41,9.93,9.93,0,0,1-1,.31,9.38,9.38,0,0,1-1.06.18,9.22,9.22,0,0,1-1,.06,6.07,6.07,0,0,1-2.37-.44,5.39,5.39,0,0,1-1.76-1.2,5.17,5.17,0,0,1-1.09-1.75,5.88,5.88,0,0,1-.38-2.1,5.74,5.74,0,0,1,.41-2.17,5.26,5.26,0,0,1,1.12-1.74,5.17,5.17,0,0,1,1.72-1.16,5.64,5.64,0,0,1,2.2-.42,6.51,6.51,0,0,1,2.36.36,4.24,4.24,0,0,1,1.54,1l-1,1.07a3.7,3.7,0,0,0-1.37-.86,4.79,4.79,0,0,0-1.52-.24,3.8,3.8,0,0,0-2.86,1.22,4,4,0,0,0-.8,1.32,4.6,4.6,0,0,0-.28,1.62,4.29,4.29,0,0,0,.31,1.65,4.18,4.18,0,0,0,.86,1.32A4,4,0,0,0,473.9,66a6.45,6.45,0,0,0,1.42-.14,4.19,4.19,0,0,0,1.15-.4V62.53h-2.32V61.2Z"/><path class="cls-2" d="M497.54,65l2,2h-1.25L497,65.77a5.17,5.17,0,0,1-1.16,1.1,2.75,2.75,0,0,1-1.5.4,3.29,3.29,0,0,1-1-.17,2.62,2.62,0,0,1-.88-.49,2.3,2.3,0,0,1-.59-.78,2.35,2.35,0,0,1-.22-1,2.21,2.21,0,0,1,.16-.87,2.45,2.45,0,0,1,.43-.71,3.43,3.43,0,0,1,.64-.56,5,5,0,0,1,.75-.43,6,6,0,0,1-.71-.93,2.07,2.07,0,0,1-.31-1.11,2.14,2.14,0,0,1,.16-.87,1.92,1.92,0,0,1,.46-.65,2,2,0,0,1,.69-.4,2.67,2.67,0,0,1,.86-.14,2.76,2.76,0,0,1,.82.13,2.12,2.12,0,0,1,.67.38,1.73,1.73,0,0,1,.45.61,2,2,0,0,1,.17.84,1.62,1.62,0,0,1-.18.77,2.21,2.21,0,0,1-.44.61,3.77,3.77,0,0,1-.62.5c-.23.14-.46.27-.68.38l2,2.07,1.2-2.07h1Zm-3.38-2.27a7.84,7.84,0,0,0-.73.47,2.38,2.38,0,0,0-.49.45,1.79,1.79,0,0,0-.27.51,2.23,2.23,0,0,0-.08.6,1.69,1.69,0,0,0,.14.68,1.48,1.48,0,0,0,.4.52,1.68,1.68,0,0,0,.56.34,2,2,0,0,0,.68.12,2.22,2.22,0,0,0,.65-.09,2.73,2.73,0,0,0,.54-.27,3,3,0,0,0,.47-.41,5.5,5.5,0,0,0,.43-.51ZM496,60.07a1.08,1.08,0,0,0-.35-.83,1.22,1.22,0,0,0-.85-.31,1.32,1.32,0,0,0-.93.34,1.21,1.21,0,0,0-.38.94,1.18,1.18,0,0,0,.11.46,3.21,3.21,0,0,0,.24.45c.1.14.2.26.3.38a2.31,2.31,0,0,0,.26.27l.53-.3a3.37,3.37,0,0,0,.52-.35,1.92,1.92,0,0,0,.4-.46A1.15,1.15,0,0,0,496,60.07Z"/><path class="cls-2" d="M301.73,82.89a3.48,3.48,0,0,1-.54.63,4.11,4.11,0,0,1-.75.51,5.08,5.08,0,0,1-.9.34,4.34,4.34,0,0,1-1,.12,4.62,4.62,0,0,1-1.8-.35,4.29,4.29,0,0,1-2.39-2.39,5,5,0,0,1,0-3.67,4.35,4.35,0,0,1,.95-1.45,4.57,4.57,0,0,1,1.44-.95,4.62,4.62,0,0,1,1.8-.34,4.34,4.34,0,0,1,1.63.32,3.28,3.28,0,0,1,1.39,1l-.78.58a2,2,0,0,0-.37-.42,2.62,2.62,0,0,0-.53-.37,3.37,3.37,0,0,0-.65-.25,2.35,2.35,0,0,0-.69-.1,3.59,3.59,0,0,0-1.5.3,3.48,3.48,0,0,0-1.12.83,3.44,3.44,0,0,0-.71,1.2,4,4,0,0,0-.25,1.43,4.12,4.12,0,0,0,.25,1.44,3.49,3.49,0,0,0,.71,1.19,3.34,3.34,0,0,0,1.12.83,3.59,3.59,0,0,0,1.5.31,3.08,3.08,0,0,0,.68-.07,3.22,3.22,0,0,0,.67-.2,2.67,2.67,0,0,0,.61-.4,2.9,2.9,0,0,0,.54-.64Z"/><path class="cls-2" d="M315.16,79.91a4.79,4.79,0,0,1-.35,1.84,4.57,4.57,0,0,1-.95,1.44,4.41,4.41,0,0,1-1.44,1,4.83,4.83,0,0,1-3.61,0,4.41,4.41,0,0,1-1.44-1,4.57,4.57,0,0,1-.95-1.44,5.12,5.12,0,0,1,0-3.67,4.5,4.5,0,0,1,.95-1.45,4.57,4.57,0,0,1,1.44-.95,5,5,0,0,1,3.61,0,4.57,4.57,0,0,1,1.44.95,4.5,4.5,0,0,1,.95,1.45A4.77,4.77,0,0,1,315.16,79.91Zm-1,0a4.26,4.26,0,0,0-.25-1.43,3.52,3.52,0,0,0-1.83-2,3.93,3.93,0,0,0-3,0,3.52,3.52,0,0,0-1.83,2,4.25,4.25,0,0,0-.24,1.43,4.35,4.35,0,0,0,.24,1.44,3.66,3.66,0,0,0,.71,1.19,3.45,3.45,0,0,0,1.12.83,3.81,3.81,0,0,0,3,0,3.45,3.45,0,0,0,1.12-.83,3.66,3.66,0,0,0,.71-1.19A4.36,4.36,0,0,0,314.2,79.91Z"/><path class="cls-2" d="M324.66,82.64l2.94-7.08H329v8.71h-.89V76.74h0l-3.15,7.53h-.47l-3.15-7.53h0v7.53h-.89V75.56h1.35Z"/><path class="cls-2" d="M341,81a5.33,5.33,0,0,1-.13,1.15,3.16,3.16,0,0,1-.49,1.13,2.82,2.82,0,0,1-1,.85,3.23,3.23,0,0,1-1.59.34,3.27,3.27,0,0,1-1.6-.34,2.88,2.88,0,0,1-1-.85,3,3,0,0,1-.48-1.13,5.33,5.33,0,0,1-.13-1.15V75.56h.88v5.36a4.24,4.24,0,0,0,.12,1.08,2.91,2.91,0,0,0,.33.75,1.81,1.81,0,0,0,.46.49,2.26,2.26,0,0,0,.5.28,2.38,2.38,0,0,0,.49.13l.4,0,.4,0a2.22,2.22,0,0,0,.49-.13,2.58,2.58,0,0,0,.51-.28,1.65,1.65,0,0,0,.45-.49A2.36,2.36,0,0,0,340,82a4.24,4.24,0,0,0,.12-1.08V75.56H341Z"/><path class="cls-2" d="M353,82.94h0V75.56h.89v8.71h-1.11l-5.19-7.46h0v7.46h-.88V75.56h1.1Z"/><path class="cls-2" d="M360.55,84.27h-.89V75.56h.89Z"/><path class="cls-2" d="M373.52,82.89a3.48,3.48,0,0,1-.54.63,4.11,4.11,0,0,1-.75.51,5.08,5.08,0,0,1-.9.34,4.34,4.34,0,0,1-1,.12,4.62,4.62,0,0,1-1.8-.35,4.29,4.29,0,0,1-2.39-2.39,5,5,0,0,1,0-3.67,4.35,4.35,0,0,1,.95-1.45,4.57,4.57,0,0,1,1.44-.95,4.62,4.62,0,0,1,1.8-.34,4.34,4.34,0,0,1,1.63.32,3.28,3.28,0,0,1,1.39,1l-.78.58a2,2,0,0,0-.37-.42,2.62,2.62,0,0,0-.53-.37,3.37,3.37,0,0,0-.65-.25,2.35,2.35,0,0,0-.69-.1,3.59,3.59,0,0,0-1.5.3,3.48,3.48,0,0,0-1.12.83,3.44,3.44,0,0,0-.71,1.2,4,4,0,0,0-.25,1.43,4.12,4.12,0,0,0,.25,1.44,3.49,3.49,0,0,0,.71,1.19,3.34,3.34,0,0,0,1.12.83,3.59,3.59,0,0,0,1.5.31,3.08,3.08,0,0,0,.68-.07,3.22,3.22,0,0,0,.67-.2,2.67,2.67,0,0,0,.61-.4,2.9,2.9,0,0,0,.54-.64Z"/><path class="cls-2" d="M378.31,84.27h-1l3.78-8.71h.87l3.79,8.71h-1l-1-2.29h-4.45Zm1.29-3.1h3.78l-1.88-4.58Z"/><path class="cls-2" d="M397.51,82.89a3.48,3.48,0,0,1-.54.63,4.11,4.11,0,0,1-.75.51,5.08,5.08,0,0,1-.9.34,4.34,4.34,0,0,1-1,.12,4.62,4.62,0,0,1-1.8-.35,4.21,4.21,0,0,1-1.44-1,4.25,4.25,0,0,1-.95-1.44,5,5,0,0,1,0-3.67,4.2,4.2,0,0,1,.95-1.45,4.35,4.35,0,0,1,1.44-.95,4.62,4.62,0,0,1,1.8-.34,4.25,4.25,0,0,1,1.62.32,3.22,3.22,0,0,1,1.39,1l-.77.58a2,2,0,0,0-.37-.42,2.7,2.7,0,0,0-.54-.37,3.27,3.27,0,0,0-.64-.25,2.35,2.35,0,0,0-.69-.1,3.59,3.59,0,0,0-1.5.3,3.64,3.64,0,0,0-1.13.83,3.58,3.58,0,0,0-.7,1.2,4,4,0,0,0-.25,1.43,4.12,4.12,0,0,0,.25,1.44,3.63,3.63,0,0,0,.7,1.19,3.49,3.49,0,0,0,1.13.83,3.59,3.59,0,0,0,1.5.31,3.08,3.08,0,0,0,.68-.07,3.22,3.22,0,0,0,.67-.2,2.72,2.72,0,0,0,1.15-1Z"/><path class="cls-2" d="M403.33,84.27h-.88V75.56h.88Z"/><path class="cls-2" d="M417.62,79.91a4.78,4.78,0,0,1-.34,1.84,4.57,4.57,0,0,1-.95,1.44,4.41,4.41,0,0,1-1.44,1,4.83,4.83,0,0,1-3.61,0,4.41,4.41,0,0,1-1.44-1,4.57,4.57,0,0,1-.95-1.44,5.12,5.12,0,0,1,0-3.67,4.5,4.5,0,0,1,.95-1.45,4.57,4.57,0,0,1,1.44-.95,5,5,0,0,1,3.61,0,4.57,4.57,0,0,1,1.44.95,4.5,4.5,0,0,1,.95,1.45A4.77,4.77,0,0,1,417.62,79.91Zm-.95,0a4.26,4.26,0,0,0-.25-1.43,3.52,3.52,0,0,0-1.83-2,3.93,3.93,0,0,0-3,0,3.52,3.52,0,0,0-1.83,2,4.25,4.25,0,0,0-.24,1.43,4.35,4.35,0,0,0,.24,1.44,3.66,3.66,0,0,0,.71,1.19,3.45,3.45,0,0,0,1.12.83,3.81,3.81,0,0,0,3,0,3.45,3.45,0,0,0,1.12-.83,3.66,3.66,0,0,0,.71-1.19A4.36,4.36,0,0,0,416.67,79.91Zm-3.61-4.73h-.73l1.23-1.78h1.12Z"/><path class="cls-2" d="M429.14,82.94h0V75.56h.89v8.71h-1.11l-5.19-7.46h0v7.46h-.89V75.56H424Z"/><path class="cls-2" d="M445.25,82.94h0l2.85-7.38h1l-3.39,8.71h-.89l-3.31-8.71h1Z"/><path class="cls-2" d="M454.57,84.27h-.89V75.56h.89Z"/><path class="cls-2" d="M464.49,77a1.89,1.89,0,0,0-1.68-.85,2.59,2.59,0,0,0-.68.09,2.06,2.06,0,0,0-.6.28,1.54,1.54,0,0,0-.42.49,1.49,1.49,0,0,0-.16.71,1.23,1.23,0,0,0,.33.92,2.57,2.57,0,0,0,.83.53,8.31,8.31,0,0,0,1.07.38,5.2,5.2,0,0,1,1.08.44,2.62,2.62,0,0,1,.82.73,2.11,2.11,0,0,1,.33,1.25,2.21,2.21,0,0,1-.25,1.06,2.31,2.31,0,0,1-.66.79,3.16,3.16,0,0,1-.92.5,3.37,3.37,0,0,1-1,.17,3.92,3.92,0,0,1-1.52-.3,2.83,2.83,0,0,1-1.22-1l.81-.58a2.21,2.21,0,0,0,.78.77,2.38,2.38,0,0,0,1.19.29,2.17,2.17,0,0,0,.66-.11,1.9,1.9,0,0,0,.6-.31,1.69,1.69,0,0,0,.43-.49,1.3,1.3,0,0,0,.18-.68,1.39,1.39,0,0,0-.2-.76,1.49,1.49,0,0,0-.5-.5,3.11,3.11,0,0,0-.71-.34l-.83-.27a8.11,8.11,0,0,1-.82-.31,2.64,2.64,0,0,1-.71-.43,2,2,0,0,1-.51-.67,2.26,2.26,0,0,1-.19-1,2.41,2.41,0,0,1,.24-1.1,2.19,2.19,0,0,1,.64-.77,2.74,2.74,0,0,1,.9-.46,4,4,0,0,1,2.38.09,3,3,0,0,1,1.12.82Z"/><path class="cls-2" d="M476.88,81a5.33,5.33,0,0,1-.13,1.15,3.16,3.16,0,0,1-.49,1.13,2.79,2.79,0,0,1-1,.85,3.93,3.93,0,0,1-3.2,0,2.88,2.88,0,0,1-1-.85,3,3,0,0,1-.48-1.13,5.33,5.33,0,0,1-.13-1.15V75.56h.88v5.36a3.8,3.8,0,0,0,.13,1.08,2.6,2.6,0,0,0,.32.75,1.81,1.81,0,0,0,.46.49,2.26,2.26,0,0,0,.5.28,2.38,2.38,0,0,0,.49.13l.4,0,.4,0a2.46,2.46,0,0,0,.5-.13,2.83,2.83,0,0,0,.5-.28,1.65,1.65,0,0,0,.45-.49,2.36,2.36,0,0,0,.33-.75,4.24,4.24,0,0,0,.12-1.08V75.56h.89Z"/><path class="cls-2" d="M482.39,84.27h-1l3.79-8.71H486l3.79,8.71h-1l-1-2.29h-4.45Zm1.29-3.1h3.78l-1.88-4.58Z"/><path class="cls-2" d="M495.31,83.45h4.06v.82h-4.95V75.56h.89Z"/></svg>