<svg id="Capa_1" data-name="Capa 1" xmlns="http://www.w3.org/2000/svg" viewBox="0 0 500 500"><defs><style>.cls-1{fill:#fff;}</style></defs><path class="cls-1" d="M492.2,217.18H434.57c-1.91.06-2.6.74-2.61,2.65,0,2.66.05,5.31,0,8-.06,2,.84,2.91,2.85,2.87h20.29c1.13,0,1.1,0,1.08,1v60.09c0,1.07,0,2.15,0,3.22,0,1.88.75,2.59,2.65,2.6,3.08,0,6.15,0,9.23,0,2.16,0,2.83-.68,2.85-2.83V232.47c0-.33,0-.66,0-1-.06-.57.1-.89.75-.81a8,8,0,0,0,1,0c6.48,0,13,0,19.45,0a3.1,3.1,0,0,0,2.93-1.32V218.46A2.82,2.82,0,0,0,492.2,217.18Z"/><path class="cls-1" d="M169.76,334.44h0c-.22.1-.44.18-.64.29a98.31,98.31,0,0,1-18.12,8A131.8,131.8,0,0,1,128.88,348a136.13,136.13,0,0,1-16.11,1.54,181.84,181.84,0,0,1-21.52-.43c-5.24-.45-10.46-1.06-15.64-2a105.35,105.35,0,0,1-30-9.83l-.27.27h0A95,95,0,0,0,58,345.71a101.28,101.28,0,0,0,41.33,12l1.94,0h0c.67,0,1.37-.26,2,.24h5.6c.61-.5,1.32-.22,2-.24h0l1.94,0h0c.83-.09,1.66-.2,2.49-.27a89.46,89.46,0,0,0,12.4-1.89,99.88,99.88,0,0,0,31.77-13,82.78,82.78,0,0,0,10.71-7.8l-.36-.36Z"/><path class="cls-1" d="M110,156.92c0-.08,0-.17,0-.25H102.1a2.09,2.09,0,0,1,0,.25Z"/><path class="cls-1" d="M5.36,258.23a.62.62,0,0,1,.2-.63h0c-.09-.28-.33-.27-.56-.27v3.08c.4.35.22.83.27,1.25s-.09.91.25,1.28A22.49,22.49,0,0,0,5.36,258.23Z"/><path class="cls-1" d="M101.18,357.85a6.57,6.57,0,0,1-1.88-.12c0,.09,0,.17,0,.26h2a.66.66,0,0,0,0-.14Z"/><path class="cls-1" d="M101.35,357.85s0,0,0,0-.06.09-.1.09h2A4.71,4.71,0,0,0,101.35,357.85Z"/><path class="cls-1" d="M101.35,357.85s0-.07-.11-.1,0,.06,0,.1Z"/><path class="cls-1" d="M108.82,358h2a.68.68,0,0,1,0-.14A5.5,5.5,0,0,0,108.82,358Z"/><path class="cls-1" d="M110.87,357.85a.08.08,0,0,1,0,.07c0,.05-.06.07-.09.07h2a2.26,2.26,0,0,1,0-.26A7,7,0,0,1,110.87,357.85Z"/><path class="cls-1" d="M110.87,357.85h0a.12.12,0,0,0-.06-.1h0a.34.34,0,0,0,0,.1Z"/><path class="cls-1" d="M9.76,242.38a38.18,38.18,0,0,0,10.51,10.11c7.65,5.31,16.12,8.91,24.93,11.79a193.8,193.8,0,0,0,37.38,7.81c5.46.66,10.93,1.11,16.42,1.39s10.8.43,16.21.55c3.07.07,6.14,0,9.22-.11,4.24-.15,8.47-.3,12.7-.6,4.05-.29,8.08-.69,12.09-1.24a142.94,142.94,0,0,0,20.36-4.14,79.42,79.42,0,0,0,18.7-7.67,37.48,37.48,0,0,0,10.84-9.13,21.63,21.63,0,0,0,4.36-18.39,85.79,85.79,0,0,0-6.72-18.9c-.09-.19-.13-.45-.41-.47-.13,0-.17.07-.17.19,0,4.08-1.66,7.48-4.15,10.57a41.23,41.23,0,0,1-10.66,8.94,113.74,113.74,0,0,1-23.24,10.55,221,221,0,0,1-25.44,7q-6.48,1.41-13,2.47-6.75,1.09-13.56,1.83c-3.8.42-7.6.81-11.41,1a148.61,148.61,0,0,1-27.88-1.27,124.88,124.88,0,0,1-19-4.3,74.05,74.05,0,0,1-19.92-9.35,34.79,34.79,0,0,1-10.48-10.51,18.47,18.47,0,0,1-2.9-12c.1-.83.22-1.65.33-2.48,0-.22-.05-.45-.28-.57h0a99.07,99.07,0,0,0-6.68,19.66,7.48,7.48,0,0,0,.89,5.65C9.07,241.27,9.4,241.83,9.76,242.38Z"/><path class="cls-1" d="M200.43,261.59a56.25,56.25,0,0,1-8.44,6.88,123.46,123.46,0,0,1-20,10.81,218.24,218.24,0,0,1-37.76,12.44,227.91,227.91,0,0,1-25.69,4.55c-5.78.67-11.58,1.19-17.4,1.32a157.75,157.75,0,0,1-20.39-.6,129,129,0,0,1-15.14-2.46,91.32,91.32,0,0,1-26.73-10.35,59.44,59.44,0,0,1-16.51-14.06,35.43,35.43,0,0,1-6.53-11.94.71.71,0,0,1-.22-.24A14.5,14.5,0,0,1,6,261.42c-.06.53,0,1.11-.45,1.52.13,3,.53,5.93.83,8.89a19.22,19.22,0,0,0,5.36,11.41,58.66,58.66,0,0,0,7.4,6.6,99.79,99.79,0,0,0,19,11.17,142.92,142.92,0,0,0,30.26,9.7,182.43,182.43,0,0,0,19,2.89c5,.51,10,.88,15,1a273.67,273.67,0,0,0,28.78-.72c4-.33,8.07-.7,12.08-1.25a156.67,156.67,0,0,0,18.49-3.56,94.82,94.82,0,0,0,23-8.89,49.11,49.11,0,0,0,13.78-11,26.57,26.57,0,0,0,4.7-7.72A57.48,57.48,0,0,0,206.19,267c.23-2.22.38-4.45.47-6.68a42.66,42.66,0,0,0-.27-8.3A21.58,21.58,0,0,1,200.43,261.59Z"/><polygon class="cls-1" points="5.57 257.61 5.56 257.6 5.57 257.61 5.57 257.61"/><path class="cls-1" d="M26.23,209.38a27.9,27.9,0,0,0,7.18,6.78,75.07,75.07,0,0,0,17.77,8.68,155.56,155.56,0,0,0,20.45,5.65q8,1.69,16.09,2.75,5.88.76,11.8,1.23c4.36.34,8.73.64,13.1.72,5.08.09,10.16.11,15.24-.15,4.19-.21,8.37-.49,12.53-1a118.25,118.25,0,0,0,18.75-3.62,67.23,67.23,0,0,0,17.44-7.38,30.17,30.17,0,0,0,10.06-9.53c3.4-5.51,3.47-11.76-.59-17.1a109.58,109.58,0,0,0-12.84-13.79l-.32.32h0a6.51,6.51,0,0,1-.82,5.23,17.59,17.59,0,0,1-3.55,4.46,49.67,49.67,0,0,1-11,7.63c-9.49,5-19.63,8.26-30.06,10.64a187.77,187.77,0,0,1-34.29,4.38,161.72,161.72,0,0,1-17.75-.13,99.92,99.92,0,0,1-12.19-1.49A48.49,48.49,0,0,1,48,208.36c-4.16-2.42-7.6-5.55-9.58-10a16,16,0,0,1-1.26-9.67,17.48,17.48,0,0,1,3.11-6.8l-.31-.29a95.12,95.12,0,0,0-11.62,11.87,30.72,30.72,0,0,0-4.18,5.92,5.65,5.65,0,0,0-.65,3.37A15.26,15.26,0,0,0,26.23,209.38Z"/><path class="cls-1" d="M49.06,184.41a19,19,0,0,0,4.37,3.45,53.2,53.2,0,0,0,14,5.42,130,130,0,0,0,27.92,3.59c4.93.16,9.87.13,14.81-.13a170.8,170.8,0,0,0,17.5-1.74A111.89,111.89,0,0,0,146,190.67a47.81,47.81,0,0,0,12.56-6,12.35,12.35,0,0,0,4.45-4.9,4.37,4.37,0,0,0-1-5.58,15.43,15.43,0,0,0-2.68-2A99.76,99.76,0,0,0,110,156.92h0a1.13,1.13,0,0,1-.86.41,57.16,57.16,0,0,1-6.14,0,1.13,1.13,0,0,1-.86-.41c-2.27.16-4.55.31-6.82.54a99.59,99.59,0,0,0-40.15,13.22,31.54,31.54,0,0,0-6.27,4.42c-2.62,2.56-2.84,5.26-.7,8.24A11.67,11.67,0,0,0,49.06,184.41Z"/><path class="cls-1" d="M442,294.16q-7.77-8.43-15.56-16.84c-1-1.09-1-.66-.22-1.95,3.39-5.83,6.81-11.65,10.21-17.47a6.31,6.31,0,0,0,.75-1.49,1.49,1.49,0,0,0-1-2,3.44,3.44,0,0,0-1.38-.15c-2.94,0-5.88,0-8.82,0a4.1,4.1,0,0,0-4.08,2.33c-1.2,2.25-2.53,4.44-3.81,6.66l-2.22,3.86c-3.78-4.07-7.48-8-11.17-12.08a48.59,48.59,0,0,0,6.49-4.2c5.71-4.43,8.9-10,8.28-17.47s-4-12.68-10.75-15.75A26.13,26.13,0,0,0,392,216c-14,3-17.71,15.49-15.81,24.46a26.48,26.48,0,0,0,5.53,11c.22.27.59.46.54,1a56.76,56.76,0,0,0-5,3.18c-4.18,3-7.52,6.67-9.19,11.63a26.06,26.06,0,0,0-1,11.86,21.5,21.5,0,0,0,10.62,16.39c6.93,4.13,14.46,4.81,22.25,3.36a27.16,27.16,0,0,0,16.67-10.4c.22-.28.35-.66.8-.73,2.44,2.68,4.92,5.34,7.31,8.08a5.14,5.14,0,0,0,4.28,1.88c4-.07,7.92,0,11.89,0a8.08,8.08,0,0,0,1,0,1.4,1.4,0,0,0,1.08-2.26A7.25,7.25,0,0,0,442,294.16Zm-52.14-59.79c.61-3.93,3.38-6,7.16-6.4.32,0,.65,0,.91,0a8.28,8.28,0,0,1,3.08.43c5.06,1.62,5.88,7.92,3.48,11.31a14,14,0,0,1-3.06,3,57.78,57.78,0,0,1-5.13,3.34c-.41.25-.69.3-1-.11a29.41,29.41,0,0,1-4.19-5.55A9.43,9.43,0,0,1,389.84,234.37ZM407,279.32a16.86,16.86,0,0,1-8.53,6.66,14.25,14.25,0,0,1-4.81.73c-5.54.14-10.85-3.38-12.09-8.95a12.58,12.58,0,0,1,2.81-11.6,25.93,25.93,0,0,1,6.53-5,.61.61,0,0,1,.93.16c.3.36.64.68.95,1l14.1,15.13C407.67,278.37,407.67,278.38,407,279.32Z"/><path class="cls-1" d="M314.89,293.88q-11.24-31.2-22.46-62.41-2.13-5.9-4.24-11.8c-.41-1.15-1-2.13-2.3-2.34a9.35,9.35,0,0,0-1.39-.14c-4.2,0-8.39,0-12.59,0-2.19,0-2.83.5-3.58,2.6l-26.82,74.46a5.65,5.65,0,0,0-.34,1.2,1.73,1.73,0,0,0,1.77,2.16c3.44,0,6.9,0,10.35,0a2.44,2.44,0,0,0,2.16-1.31,8.74,8.74,0,0,0,.59-1.41q2.64-7.56,5.29-15.13c.5-1.43.15-1.23,1.71-1.24H282.9c3.45,0,6.9,0,10.35,0a1.12,1.12,0,0,1,1.29.91c.64,2,1.36,3.95,2,5.93,1.14,3.29,2.27,6.59,3.42,9.87.51,1.46,1.18,2.51,3.42,2.44,1.58-.06,3.17,0,4.76,0s3.45,0,5.17,0a1.85,1.85,0,0,0,2-2.57A11.84,11.84,0,0,0,314.89,293.88Zm-48.42-28.72c3.79-10.92,7.63-21.72,11.55-32.87,3.91,11.07,7.64,21.89,11.49,32.87Z"/><path class="cls-1" d="M368.59,228.38c0-1.26,0-2.52,0-3.78,0-1.72,0-3.45,0-5.17a2,2,0,0,0-2-2.21,10.86,10.86,0,0,0-1.4,0H308.91c-.37,0-.75,0-1.12,0-1.58.11-2.3.81-2.32,2.38q0,4.32,0,8.66a2.16,2.16,0,0,0,2.27,2.44c.37,0,.75,0,1.12,0h19.73c1.15,0,1.07,0,1.07,1v62.35c0,.42,0,.84,0,1.25a2.22,2.22,0,0,0,2.4,2.32q5-.07,9.93,0a2.22,2.22,0,0,0,2.41-2.31c0-.37,0-.75,0-1.12V232.29c0-.37,0-.74,0-1.11a.43.43,0,0,1,.5-.5H365.2a10.4,10.4,0,0,0,1.25,0A2.11,2.11,0,0,0,368.59,228.38Z"/><path class="cls-1" d="M199.23,294.54a48.07,48.07,0,0,1-9.61,10.07,91.09,91.09,0,0,1-22.5,12.84,157.13,157.13,0,0,1-26.52,8.12A210.55,210.55,0,0,1,117,329.25c-4.77.47-9.56.82-14.34,1a163,163,0,0,1-23.17-.7c-4.26-.47-8.5-1-12.7-1.83a117.74,117.74,0,0,1-27.66-8.61c-8.88-4.13-16.93-9.39-23-17.27-.1.09-.19.19-.29.29h0c.09.21.16.43.27.64a51,51,0,0,0,8,11,70.8,70.8,0,0,0,19.23,14,119.47,119.47,0,0,0,30.31,10.34c5.51,1.16,11.08,2,16.68,2.6,4.12.45,8.25.8,12.38,1,5.07.22,10.15.23,15.23.11,4.11-.1,8.19-.47,12.25-1s8.28-1.22,12.38-2.11a106.44,106.44,0,0,0,28.18-10.07A58.43,58.43,0,0,0,185,318.31a57,57,0,0,0,9.59-13.18,73.73,73.73,0,0,0,5-10.62l-.29,0Z"/><path class="cls-1" d="M170.93,333.65h0a3.36,3.36,0,0,0-1.17.79c.29-.06.4.07.36.36a4.61,4.61,0,0,0,1.11-.85l-.3-.3Z"/><path class="cls-1" d="M40.29,181.85a1.38,1.38,0,0,0,.69-1.09,1.4,1.4,0,0,0-1,.8C40.24,181.49,40.36,181.58,40.29,181.85Z"/><path class="cls-1" d="M16.17,301.81a3,3,0,0,0-1.05-1.27,3.49,3.49,0,0,0,.76,1.56C15.77,301.8,15.91,301.75,16.17,301.81Z"/><path class="cls-1" d="M171.23,334a2.58,2.58,0,0,0,1.11-1.17,3.79,3.79,0,0,0-1.41.87C171.22,333.55,171.29,333.68,171.23,334Z"/><path class="cls-1" d="M14.81,216A1.26,1.26,0,0,0,15,214.7a.86.86,0,0,0-.49.7h0C15.06,215.37,14.94,215.67,14.81,216Z"/><path class="cls-1" d="M45.59,337.28a1.18,1.18,0,0,0-1.08-.46,1.31,1.31,0,0,0,.81.73h0C45.25,337.3,45.3,337.17,45.59,337.28Z"/><path class="cls-1" d="M173.21,182.64a1.76,1.76,0,0,0-.14-.23c-.13-.13-.27-.31-.45-.22s-.05.32,0,.47a1.37,1.37,0,0,0,.25.3C172.81,182.67,172.94,182.59,173.21,182.64Z"/><path class="cls-1" d="M199.23,294.54h0a.17.17,0,0,1,.29,0c.17-.09.3-.27.09-.35S199.28,294.33,199.23,294.54Z"/><path class="cls-1" d="M5.56,257.61c.16.16.11.41.26.57A.49.49,0,0,0,5.56,257.61Z"/><path class="cls-1" d="M5.6,257.94c0-.11,0-.22,0-.33A.72.72,0,0,0,5.6,257.94Z"/></svg>