<svg id="Capa_1" data-name="Capa 1" xmlns="http://www.w3.org/2000/svg" viewBox="0 0 500 373"><defs><style>.cls-1{fill:#fff;}</style></defs><path class="cls-1" d="M99.73,335.52a4.71,4.71,0,0,1-.86,2.65,4.05,4.05,0,0,1-1.09,1.05,5.06,5.06,0,0,1-1.56.69V340a5.67,5.67,0,0,1,1.52.45,4,4,0,0,1,1.29.88,4.17,4.17,0,0,1,.91,1.35,4.73,4.73,0,0,1,.34,1.89,4.93,4.93,0,0,1-.59,2.49,5.06,5.06,0,0,1-1.57,1.71,6.77,6.77,0,0,1-2.22,1,10,10,0,0,1-2.56.32H92.28c-.41,0-.83,0-1.28,0s-.88-.06-1.32-.1a8.24,8.24,0,0,1-1.18-.2V331.42c.66-.1,1.42-.19,2.29-.26s1.82-.11,2.85-.11a12.79,12.79,0,0,1,2.11.18,5.62,5.62,0,0,1,2,.66,4.13,4.13,0,0,1,1.45,1.37A4,4,0,0,1,99.73,335.52Zm-7.63,3.94,1.09,0c.42,0,.77-.05,1.06-.08a8,8,0,0,0,1.2-.52,4.49,4.49,0,0,0,1-.72,2.94,2.94,0,0,0,.69-.95,2.79,2.79,0,0,0,.25-1.19,2.88,2.88,0,0,0-.32-1.45,2.61,2.61,0,0,0-.9-.91,4,4,0,0,0-1.27-.5,8,8,0,0,0-1.47-.14c-.58,0-1.12,0-1.61,0a6.06,6.06,0,0,0-1.1.12v6.33Zm1.46,8.72a7,7,0,0,0,1.65-.2,4,4,0,0,0,1.4-.64,3.13,3.13,0,0,0,1-1.08,2.91,2.91,0,0,0,.36-1.51,3.19,3.19,0,0,0-.43-1.76,3.08,3.08,0,0,0-1.15-1,5,5,0,0,0-1.58-.51,11.55,11.55,0,0,0-1.75-.13H90.71V348a2.72,2.72,0,0,0,.53.08l.75.05c.27,0,.54,0,.82.05Z"/><path class="cls-1" d="M113,331.26h2.13v12.42a8.37,8.37,0,0,1-.45,2.9,5.08,5.08,0,0,1-1.24,2,5,5,0,0,1-2,1.16,8.05,8.05,0,0,1-2.53.37,7.25,7.25,0,0,1-5-1.49,5.72,5.72,0,0,1-1.67-4.52V331.26h2.2v11.81a8.93,8.93,0,0,0,.28,2.38,3.86,3.86,0,0,0,.84,1.57,3.21,3.21,0,0,0,1.4.87,6.72,6.72,0,0,0,2,.26A3.69,3.69,0,0,0,112,347a6.39,6.39,0,0,0,.93-3.9Z"/><path class="cls-1" d="M126.27,345.15a2.55,2.55,0,0,0-.67-1.82,6.39,6.39,0,0,0-1.66-1.25,19.91,19.91,0,0,0-2.17-1,11.69,11.69,0,0,1-2.16-1.15,6.35,6.35,0,0,1-1.67-1.68,4.52,4.52,0,0,1-.66-2.54,4.29,4.29,0,0,1,1.51-3.46,6.54,6.54,0,0,1,4.31-1.28,16.77,16.77,0,0,1,3,.25,7.94,7.94,0,0,1,2.07.61l-.67,2a7.8,7.8,0,0,0-1.79-.58,11.46,11.46,0,0,0-2.67-.28,3.89,3.89,0,0,0-2.64.79,2.49,2.49,0,0,0-.21,3.58,6.76,6.76,0,0,0,1.66,1.23c.67.36,1.39.72,2.17,1.08a12.47,12.47,0,0,1,2.17,1.24,6.62,6.62,0,0,1,1.66,1.68,4.33,4.33,0,0,1,.67,2.45,5.34,5.34,0,0,1-.43,2.16,4.52,4.52,0,0,1-1.25,1.64,5.76,5.76,0,0,1-2,1.07,8.75,8.75,0,0,1-2.67.37,14.28,14.28,0,0,1-3.29-.31,8.11,8.11,0,0,1-2-.68l.74-2a9.1,9.1,0,0,0,1.81.66,10.56,10.56,0,0,0,2.69.32,7.18,7.18,0,0,0,1.64-.17,3.56,3.56,0,0,0,1.33-.56,2.76,2.76,0,0,0,.89-1A2.67,2.67,0,0,0,126.27,345.15Z"/><path class="cls-1" d="M130.73,331.26h2.21v18.62h-2.21Z"/><path class="cls-1" d="M139.56,337.7,138.13,335H138l.26,2.68v12.18h-2.07V331h1.17l8.91,12.42,1.38,2.56h.14l-.3-2.56V331.26h2.08v18.92h-1.17Z"/><path class="cls-1" d="M152.35,331.26h10.13v2h-7.92v6.09h7.26v2h-7.26v6.62h8.06v2H152.35Z"/><path class="cls-1" d="M173.26,345.15a2.55,2.55,0,0,0-.67-1.82,6.39,6.39,0,0,0-1.66-1.25,19.91,19.91,0,0,0-2.17-1,11.69,11.69,0,0,1-2.16-1.15,6.35,6.35,0,0,1-1.67-1.68,4.52,4.52,0,0,1-.66-2.54,4.29,4.29,0,0,1,1.51-3.46,6.54,6.54,0,0,1,4.31-1.28,16.77,16.77,0,0,1,3,.25,7.94,7.94,0,0,1,2.07.61l-.67,2a7.8,7.8,0,0,0-1.79-.58,11.46,11.46,0,0,0-2.67-.28,3.89,3.89,0,0,0-2.64.79,2.47,2.47,0,0,0-.21,3.58,6.76,6.76,0,0,0,1.66,1.23c.67.36,1.39.72,2.17,1.08a12.47,12.47,0,0,1,2.17,1.24,6.62,6.62,0,0,1,1.66,1.68,4.33,4.33,0,0,1,.67,2.45,5.34,5.34,0,0,1-.43,2.16,4.52,4.52,0,0,1-1.25,1.64,5.72,5.72,0,0,1-2,1.07,8.64,8.64,0,0,1-2.66.37,14.28,14.28,0,0,1-3.29-.31,8.11,8.11,0,0,1-2-.68l.74-2a9.1,9.1,0,0,0,1.81.66,10.53,10.53,0,0,0,2.68.32,7.21,7.21,0,0,0,1.65-.17,3.56,3.56,0,0,0,1.33-.56,2.85,2.85,0,0,0,.89-1A2.67,2.67,0,0,0,173.26,345.15Z"/><path class="cls-1" d="M185.62,345.15a2.55,2.55,0,0,0-.67-1.82,6.39,6.39,0,0,0-1.66-1.25,19.06,19.06,0,0,0-2.17-1A11.69,11.69,0,0,1,179,339.9a6.17,6.17,0,0,1-1.66-1.68,4.45,4.45,0,0,1-.67-2.54,4.32,4.32,0,0,1,1.51-3.46,6.55,6.55,0,0,1,4.32-1.28,16.73,16.73,0,0,1,2.95.25,7.94,7.94,0,0,1,2.07.61l-.67,2a7.8,7.8,0,0,0-1.79-.58,11.46,11.46,0,0,0-2.67-.28,3.84,3.84,0,0,0-2.63.79,2.39,2.39,0,0,0-.88,1.85,2.43,2.43,0,0,0,.66,1.73,6.82,6.82,0,0,0,1.67,1.23q1,.54,2.16,1.08a12.47,12.47,0,0,1,2.17,1.24,6.46,6.46,0,0,1,1.66,1.68,4.33,4.33,0,0,1,.67,2.45,5.34,5.34,0,0,1-.43,2.16,4.52,4.52,0,0,1-1.25,1.64,5.67,5.67,0,0,1-2,1.07,8.75,8.75,0,0,1-2.67.37,14.4,14.4,0,0,1-3.29-.31,8.26,8.26,0,0,1-2-.68l.74-2a9.1,9.1,0,0,0,1.81.66,10.61,10.61,0,0,0,2.69.32,7.33,7.33,0,0,0,1.65-.17,3.59,3.59,0,0,0,1.32-.56,2.7,2.7,0,0,0,1.23-2.35Z"/><path class="cls-1" d="M288.48,349.11a4.77,4.77,0,0,1-2,.85,13.54,13.54,0,0,1-2.61.24,8.53,8.53,0,0,1-3.13-.57,7,7,0,0,1-2.56-1.74,8.4,8.4,0,0,1-1.73-3,13.18,13.18,0,0,1-.64-4.31,12.28,12.28,0,0,1,.71-4.43,8.56,8.56,0,0,1,1.86-3,7.14,7.14,0,0,1,2.59-1.68,8.26,8.26,0,0,1,2.93-.54,15.49,15.49,0,0,1,2.61.18,8.18,8.18,0,0,1,1.72.46l-.53,2a8.39,8.39,0,0,0-3.64-.64,6.25,6.25,0,0,0-2.16.4,5,5,0,0,0-1.9,1.3,6.91,6.91,0,0,0-1.34,2.37,11.09,11.09,0,0,0-.5,3.6,10.93,10.93,0,0,0,.47,3.35,7,7,0,0,0,1.32,2.39,5.21,5.21,0,0,0,2,1.43,6.2,6.2,0,0,0,2.46.48,8.12,8.12,0,0,0,2.09-.24,5.79,5.79,0,0,0,1.5-.61Z"/><path class="cls-1" d="M288.85,340.58q0-4.66,2-7.15a6.76,6.76,0,0,1,5.61-2.49,7.78,7.78,0,0,1,3.4.7,6.37,6.37,0,0,1,2.38,1.95,8.55,8.55,0,0,1,1.4,3,16.09,16.09,0,0,1,.45,4q0,4.64-2,7.13a6.81,6.81,0,0,1-5.65,2.49,7.65,7.65,0,0,1-3.37-.69,6.31,6.31,0,0,1-2.36-2,8.47,8.47,0,0,1-1.4-3A15.92,15.92,0,0,1,288.85,340.58Zm2.34,0a13.76,13.76,0,0,0,.3,2.92,8,8,0,0,0,.95,2.43,5.14,5.14,0,0,0,1.63,1.68,4.42,4.42,0,0,0,2.36.62,4.58,4.58,0,0,0,3.88-1.87q1.41-1.87,1.41-5.78a13.2,13.2,0,0,0-.31-2.92,7.63,7.63,0,0,0-1-2.44,5.3,5.3,0,0,0-1.65-1.68,4.38,4.38,0,0,0-2.38-.63,4.55,4.55,0,0,0-3.85,1.88Q291.18,336.67,291.19,340.58Z"/><path class="cls-1" d="M309.72,337.7,308.29,335h-.11l.26,2.68v12.18h-2.07V331h1.17l8.91,12.42,1.38,2.56H318l-.3-2.56V331.26h2.08v18.92h-1.17Z"/><path class="cls-1" d="M331.24,345.15a2.51,2.51,0,0,0-.67-1.82,6.39,6.39,0,0,0-1.66-1.25,19.06,19.06,0,0,0-2.17-1,11.69,11.69,0,0,1-2.16-1.15,6.17,6.17,0,0,1-1.66-1.68,4.45,4.45,0,0,1-.67-2.54,4.3,4.3,0,0,1,1.52-3.46,6.52,6.52,0,0,1,4.31-1.28,16.73,16.73,0,0,1,2.95.25,7.94,7.94,0,0,1,2.07.61l-.66,2a8.08,8.08,0,0,0-1.8-.58,11.46,11.46,0,0,0-2.67-.28,3.84,3.84,0,0,0-2.63.79,2.47,2.47,0,0,0-.21,3.58,6.58,6.58,0,0,0,1.66,1.23q1,.54,2.16,1.08a12.47,12.47,0,0,1,2.17,1.24,6.46,6.46,0,0,1,1.66,1.68,4.33,4.33,0,0,1,.67,2.45,5.18,5.18,0,0,1-.43,2.16,4.52,4.52,0,0,1-1.25,1.64,5.67,5.67,0,0,1-2,1.07,8.73,8.73,0,0,1-2.66.37,14.43,14.43,0,0,1-3.3-.31,8.26,8.26,0,0,1-2-.68l.75-2a8.73,8.73,0,0,0,1.8.66,10.61,10.61,0,0,0,2.69.32,7.33,7.33,0,0,0,1.65-.17,3.71,3.71,0,0,0,1.33-.56,2.85,2.85,0,0,0,.89-1A2.76,2.76,0,0,0,331.24,345.15Z"/><path class="cls-1" d="M346.21,331.26h2.13v12.42a8.63,8.63,0,0,1-.44,2.9,5.1,5.1,0,0,1-1.25,2,4.89,4.89,0,0,1-2,1.16,8,8,0,0,1-2.52.37,7.27,7.27,0,0,1-5-1.49,5.76,5.76,0,0,1-1.67-4.52V331.26h2.21v11.81a8.53,8.53,0,0,0,.28,2.38,3.73,3.73,0,0,0,.83,1.57,3.21,3.21,0,0,0,1.4.87,6.72,6.72,0,0,0,1.95.26,3.69,3.69,0,0,0,3.09-1.18,6.39,6.39,0,0,0,.93-3.9Z"/><path class="cls-1" d="M362.43,349.88h-11V331.26h2.21v16.65h8.8Z"/><path class="cls-1" d="M372.51,333.23h-5.8v16.65h-2.2V333.23h-5.8v-2h13.8Z"/><path class="cls-1" d="M374.32,331.26h2.21v18.62h-2.21Z"/><path class="cls-1" d="M383.47,337.7,382,335h-.11l.26,2.68v12.18h-2.07V331h1.17l8.91,12.42,1.38,2.56h.13l-.29-2.56V331.26h2.08v18.92h-1.18Z"/><path class="cls-1" d="M402.86,340.6h6.25v8.19a5.25,5.25,0,0,1-1,.58,9.51,9.51,0,0,1-1.27.46,10.66,10.66,0,0,1-1.41.28,11.68,11.68,0,0,1-1.43.09,9.13,9.13,0,0,1-3.27-.57,6.79,6.79,0,0,1-2.58-1.76,8.3,8.3,0,0,1-1.7-3,13.49,13.49,0,0,1-.61-4.29,11.85,11.85,0,0,1,.74-4.42,8.76,8.76,0,0,1,1.95-3,7.3,7.3,0,0,1,2.68-1.68,8.7,8.7,0,0,1,3-.54,15.84,15.84,0,0,1,2.63.18,8.43,8.43,0,0,1,1.76.46l-.56,2a8.44,8.44,0,0,0-3.65-.64,6.66,6.66,0,0,0-2.22.39,5.11,5.11,0,0,0-2,1.29,6.7,6.7,0,0,0-1.44,2.37,10.24,10.24,0,0,0-.56,3.62,11.43,11.43,0,0,0,.45,3.4,6.73,6.73,0,0,0,1.26,2.38,5,5,0,0,0,1.95,1.41,6.53,6.53,0,0,0,2.49.46,5.88,5.88,0,0,0,2.89-.66v-5.19l-4.33-.53Z"/><path class="cls-1" d="M244.15,356.88a23.34,23.34,0,0,0,5.44-14c-.88-1.2-8.61-.65-8.61-.65,4.25,0,4.69,3.26,4.69,5.22A21.84,21.84,0,0,1,243,356c-5.8-4.68-12.73-11.1-17.59-18.14a11.23,11.23,0,0,1-2.4-7.4c0-4.86,3.49-6.32,7.52-6.32a8.19,8.19,0,0,1,7.95,7.84v-7.84s-1.64-1.74-7.62-1.74-11.11,4.9-11.11,10.23c0,4.16,1.13,6.07,2.6,7.95-2.41.88-8.7,4-8.7,13.34,0,11.48,13.18,11.82,13.18,11.82,4.92,0,8.21-.71,14.23-5.84a53.83,53.83,0,0,0,7.47,5h10.62a20.56,20.56,0,0,1-8.15-2.94C249.28,360.76,246.85,359,244.15,356.88Zm-14.82,6.77c-4.25,0-11.54-3.59-11.54-11.87a11.83,11.83,0,0,1,5.3-10.3l.58.72A113.85,113.85,0,0,0,240,359.08C237.2,361.22,232.72,363.65,229.33,363.65Z"/><path class="cls-1" d="M86.52,283.27H87c2.88-9.61,12.73-39.88,16.47-53.24a22.74,22.74,0,0,0,1.17-6.69c0-1.87-1.17-3.12-6.09-3.12-.54,0-1-.32-1-.74s.54-.73,1.82-.73c5.45,0,9.94.32,10.91.32.75,0,5.34-.32,8.66-.32,1,0,1.5.21,1.5.63s-.33.84-1,.84a14.21,14.21,0,0,0-3.63.52c-3.21,1.15-4.92,5.53-7,11.27-4.71,13.26-15.51,46.46-19.68,58.15-2.78,7.73-3.32,9-4.5,9s-1.71-1.36-3.21-5.43l-21-58h-.21c-3.86,10-18.5,48.24-22.36,58-1.7,4.38-2.24,5.53-3.52,5.53-1.07,0-1.6-1.15-3.74-8.25L11.65,229c-1.7-5.53-3.1-7.09-5.88-8.14A18,18,0,0,0,1,220.22c-.53,0-1-.11-1-.74s.64-.73,1.7-.73c5.57,0,11.45.32,12.63.32,1,0,5.67-.32,11-.32,1.5,0,1.93.32,1.93.73,0,.63-.53.74-1.07.74a10.76,10.76,0,0,0-4.17.62,2.71,2.71,0,0,0-1.39,2.5c0,1.36,1,5,2,9.61,1.6,6.68,12.73,45,14.33,50.53h.22L59.89,224c1.61-4.27,2-4.8,2.67-4.8s1.39,1.35,2.68,4.91Z"/><path class="cls-1" d="M173.63,275.47c0,7.32,0,13.35.39,16.56.24,2.21.71,3.88,3.06,4.19,1.09.15,2.81.31,3.52.31.47,0,.62.22.62.45,0,.39-.39.61-1.25.61-4.3,0-9.23-.22-9.62-.22s-5.33.22-7.67.22c-.86,0-1.26-.15-1.26-.61,0-.23.17-.45.63-.45a12.62,12.62,0,0,0,2.35-.31c1.57-.31,2-2,2.27-4.19.39-3.21.39-9.24.39-16.56v-8a.45.45,0,0,0-.47-.45H133.41c-.23,0-.46.07-.46.45v8c0,7.32,0,13.35.39,16.56.23,2.21.7,3.88,3,4.19,1.09.15,2.81.31,3.52.31.47,0,.63.22.63.45,0,.39-.4.61-1.26.61-4.3,0-9.23-.22-9.62-.22s-5.32.22-7.67.22c-.86,0-1.25-.15-1.25-.61,0-.23.16-.45.62-.45a12.62,12.62,0,0,0,2.35-.31c1.57-.31,2-2,2.27-4.19.39-3.21.39-9.24.39-16.56V262.05c0-11.9,0-14-.16-16.48-.15-2.59-.78-3.81-3.36-4.34a14.3,14.3,0,0,0-2.66-.24c-.31,0-.63-.15-.63-.45,0-.46.4-.61,1.25-.61,3.53,0,8.46.23,8.85.23s5.32-.23,7.67-.23c.86,0,1.25.15,1.25.61,0,.3-.31.45-.63.45a11.52,11.52,0,0,0-2,.24c-2.11.37-2.73,1.67-2.89,4.34-.15,2.44-.15,4.58-.15,16.48v1.6a.4.4,0,0,0,.46.46h33.18a.41.41,0,0,0,.47-.46v-1.6c0-11.9,0-14-.15-16.48-.16-2.59-.79-3.81-3.37-4.34a14.3,14.3,0,0,0-2.66-.24c-.31,0-.63-.15-.63-.45,0-.46.39-.61,1.26-.61,3.51,0,8.44.23,8.84.23s5.32-.23,7.67-.23c.86,0,1.25.15,1.25.61,0,.3-.32.45-.63.45a11.41,11.41,0,0,0-2,.24c-2.11.37-2.74,1.67-2.89,4.34-.16,2.44-.16,4.58-.16,16.48Z"/><path class="cls-1" d="M208,275.47c0,7.32,0,13.35.39,16.56.23,2.21.7,3.88,3.05,4.19,1.1.15,2.81.31,3.52.31.47,0,.63.22.63.45,0,.39-.39.61-1.25.61-4.31,0-9.23-.22-9.63-.22s-5.32.22-7.67.22c-.86,0-1.25-.15-1.25-.61,0-.23.16-.45.62-.45a12.51,12.51,0,0,0,2.35-.31c1.57-.31,2-2,2.27-4.19.39-3.21.39-9.24.39-16.56V262.05c0-11.9,0-14-.15-16.48-.15-2.59-.94-3.89-2.67-4.27a10.37,10.37,0,0,0-2.42-.31c-.31,0-.62-.15-.62-.45,0-.46.39-.61,1.24-.61,2.59,0,7.52.23,7.91.23s5.32-.23,7.67-.23c.86,0,1.25.15,1.25.61,0,.3-.31.45-.63.45a11.32,11.32,0,0,0-1.95.24c-2.11.37-2.74,1.67-2.9,4.34-.15,2.44-.15,4.58-.15,16.48Z"/><path class="cls-1" d="M252.53,275.47c0,7.32,0,13.35.39,16.56.24,2.21.7,3.88,3.05,4.19,1.1.15,2.82.31,3.52.31.48,0,.63.22.63.45,0,.39-.39.61-1.25.61-4.3,0-9.23-.22-9.62-.22s-5.33.22-7.67.22c-.87,0-1.26-.15-1.26-.61,0-.23.16-.45.63-.45a12.62,12.62,0,0,0,2.35-.31c1.56-.31,1.95-2,2.27-4.19.39-3.21.39-9.24.39-16.56V243.21l-11.58.15c-4.85.08-6.73.61-8,2.44a13.71,13.71,0,0,0-1.32,2.36c-.24.61-.48.77-.79.77s-.39-.23-.39-.69c0-.76,1.56-7.32,1.72-7.93s.47-1.45.78-1.45c.56,0,1.34.76,3.45.91,2.27.23,5.24.39,6.18.39h29.35a31.71,31.71,0,0,0,5.55-.39c1.17-.15,1.87-.38,2.19-.38s.39.46.39.92c0,2.29-.23,7.55-.23,8.39s-.24,1-.55,1-.55-.23-.63-1.3l-.07-.84c-.24-2.28-2.12-4-9.63-4.19l-9.86-.15Z"/><path class="cls-1" d="M297.66,241.83c.93-2.52,1.25-3,1.72-3s.78.38,1.72,2.75c1.17,2.89,13.46,34.4,18.23,46,2.82,6.79,5.08,8,6.73,8.47a10.28,10.28,0,0,0,3.12.45c.48,0,.78.08.78.46s-.69.61-1.56.61c-1.17,0-6.88,0-12.28-.15-1.48-.08-2.34-.08-2.34-.53s.23-.46.54-.54c.47-.15.93-.84.47-2.05l-7.28-18.77a.67.67,0,0,0-.7-.46H290a.83.83,0,0,0-.79.61l-4.69,13.5a15.86,15.86,0,0,0-1.1,5.12c0,1.52,1.65,2.2,3,2.2h.78c.55,0,.79.16.79.46,0,.46-.48.61-1.18.61-1.88,0-5.24-.23-6.11-.23s-5.16.23-8.83.23c-1,0-1.49-.15-1.49-.61,0-.3.31-.46.7-.46.55,0,1.64-.07,2.27-.15,3.6-.45,5.16-3.35,6.57-7.17Zm8.13,30.51c.4,0,.4-.22.31-.53l-7.43-20.59q-.59-1.72-1.17,0l-6.89,20.59c-.15.38,0,.53.24.53Z"/><path class="cls-1" d="M341.13,262.05c0-11.9,0-14-.15-16.48-.16-2.59-.78-3.81-3.37-4.34A14.23,14.23,0,0,0,335,241c-.31,0-.63-.14-.63-.45s.39-.61,1.26-.61c3.51,0,8.14.22,8.61.22.7,0,5.23-.22,7.59-.22.86,0,1.25.15,1.25.61s-.31.45-.63.45a11.41,11.41,0,0,0-2,.24c-2.11.37-2.73,1.67-2.89,4.34-.15,2.44-.15,4.58-.15,16.48v4.57h.31c1.32-1.45,15.49-15.48,18.31-18.45,2.19-2.22,4.22-4.2,4.22-5.5a1.5,1.5,0,0,0-1-1.6c-.39-.15-.72-.31-.72-.61s.39-.53.95-.53c1.57,0,4,.22,5.86.22.4,0,5.56-.22,7.51-.22.87,0,1.17.15,1.17.53s-.15.53-.78.53a12,12,0,0,0-4.38,1.07c-3.2,1.38-4.92,3.28-8.44,6.56-2,1.83-15.57,14.8-17.23,16.71,2.05,2.21,18.32,18.61,21.52,21.51,6.58,6,7.92,7.17,11.67,8.69a14.82,14.82,0,0,0,4.84,1c.56,0,1,.15,1,.45s-.39.61-1.72.61h-4c-2.2,0-3.69,0-5.4-.15-4.15-.38-6.11-2.06-9.47-4.65C368.12,290,351.54,272.5,347.78,268h-.38v7.48c0,7.32,0,13.34.38,16.55.23,2.21.71,3.89,3.06,4.19a27.79,27.79,0,0,0,3.05.31c.47,0,.63.23.63.45,0,.38-.4.61-1.26.61-3.84,0-8.37-.23-9-.23s-5.17.23-7.51.23c-.86,0-1.26-.15-1.26-.61,0-.22.17-.45.63-.45a12.3,12.3,0,0,0,2.34-.31c1.58-.3,2-2,2.28-4.19.39-3.21.39-9.23.39-16.55Z"/><path class="cls-1" d="M400,262.05c0-11.9,0-14-.15-16.48-.16-2.59-.79-3.81-3.37-4.34a14.38,14.38,0,0,0-2.66-.24c-.31,0-.63-.14-.63-.45s.39-.61,1.26-.61c1.8,0,3.9,0,5.63.08l3.2.14c.55,0,16.12,0,17.92-.07a19.71,19.71,0,0,0,3.37-.39c.39-.07.7-.38,1.09-.38s.31.31.31.7-.39,1.45-.62,3.58c-.08.76-.23,4.12-.39,5-.08.39-.23.84-.55.84-.47,0-.63-.38-.63-1a8,8,0,0,0-.46-2.74c-.55-1.23-1.34-2.14-5.56-2.6-1.34-.15-9.86-.23-10.72-.23-.31,0-.47.23-.47.76v21.06c0,.53.08.76.47.76,1,0,10.64,0,12.44-.15s3-.31,3.68-1.07c.55-.61.86-1,1.18-1s.39.15.39.61-.39,1.75-.63,4.27c-.16,1.53-.32,4.35-.32,4.88s0,1.45-.54,1.45c-.39,0-.55-.3-.55-.68a7.66,7.66,0,0,0-.31-2.52c-.32-1.07-1-2.36-4.07-2.67-2.11-.23-9.86-.38-11.19-.38a.49.49,0,0,0-.55.53v6.72c0,2.58-.08,11.44,0,13,.24,5.26,1.41,6.26,9.07,6.26,2,0,5.49,0,7.52-.85s3-2.36,3.52-5.49c.16-.84.31-1.14.7-1.14s.47.6.47,1.14a72.88,72.88,0,0,1-1,7.4c-.55,2-1.18,2-4.23,2-5.87,0-10.18-.15-13.22-.23s-4.93-.23-6.11-.23c-.15,0-1.48,0-3.12.08s-3.37.15-4.54.15c-.87,0-1.26-.15-1.26-.61,0-.22.16-.45.63-.45a12.41,12.41,0,0,0,2.34-.31c1.58-.3,2-2,2.28-4.19.39-3.21.39-9.23.39-16.55Z"/><path class="cls-1" d="M447.66,262.05c0-11.9,0-14-.16-16.48-.15-2.59-.78-3.81-3.36-4.34a14.38,14.38,0,0,0-2.66-.24c-.32,0-.63-.15-.63-.46s.39-.6,1.25-.6c3.53,0,8.45.22,8.85.22.85,0,6.8-.22,9.23-.22,4.93,0,10.16.46,14.32,3.35a13.26,13.26,0,0,1,5.39,10.38c0,5.64-2.42,11.29-9.46,17.62,6.41,8,11.74,14.8,16.27,19.53,4.23,4.35,7.59,5.19,9.55,5.49a19.15,19.15,0,0,0,3.05.23c.39,0,.7.22.7.45,0,.45-.46.62-1.87.62h-5.55c-4.39,0-6.35-.39-8.38-1.46-3.37-1.75-6.11-5.49-10.57-11.21-3.29-4.19-7-9.3-8.52-11.29a1.31,1.31,0,0,0-1-.46l-9.63-.15c-.39,0-.54.23-.54.61v1.83c0,7.32,0,13.35.39,16.56.24,2.21.7,3.88,3.05,4.19,1.1.15,2.82.31,3.52.31.47,0,.63.22.63.45,0,.39-.39.62-1.25.62-4.31,0-9.23-.23-9.63-.23-.08,0-5,.23-7.35.23-.86,0-1.25-.17-1.25-.62,0-.23.15-.45.62-.45a12.84,12.84,0,0,0,2.35-.31c1.56-.31,1.95-2,2.26-4.19.4-3.21.4-9.24.4-16.56Zm6.26,6.63a1,1,0,0,0,.54.92c1.17.68,4.77,1.22,8.22,1.22a10.29,10.29,0,0,0,5.86-1.45c2.75-1.83,4.77-6,4.77-11.74,0-9.54-5.16-15.26-13.52-15.26a24,24,0,0,0-5.24.46.9.9,0,0,0-.63.91Z"/><path class="cls-1" d="M338.53,102.07V7.61l-23.19-8V96.28s5.07,54.35-47.35,64.5c0,0,70.54,6.76,70.54-58.71"/><path class="cls-1" d="M245.77,100.14V8L220.63-.36V96.28s-1.21,24.64,10.87,34.3c0,0,11.37-6,15.95-16.42a87.46,87.46,0,0,1-1.68-14"/><path class="cls-1" d="M294.08,101.59v-94l-23.19-8V96.28S271.21,153,216.52,153c0,0-40.1,2.18-55.08-27.29,0,0,19.09,45.66,82.62,35,0,0,50-7.05,50-59.19"/><path class="cls-1" d="M199.37,100.14V8L174.25-.36V96.28s-1,43.48,45.42,37.36c0,0-20.3,1.94-20.3-33.5"/></svg>