<svg id="Capa_1" data-name="Capa 1" xmlns="http://www.w3.org/2000/svg" viewBox="0 0 500 54"><defs><style>.cls-1{fill:#fff;}</style></defs><polygon class="cls-1" points="24.57 18.66 28.69 18.66 28.69 49.52 24.26 49.52 24.26 25.51 14.8 37.44 13.98 37.44 4.41 25.51 4.41 49.52 0 49.52 0 18.66 4.17 18.66 14.4 31.34 24.57 18.66"/><rect class="cls-1" x="57.94" y="18.66" width="4.41" height="30.86"/><polygon class="cls-1" points="91.74 18.66 96.15 18.66 96.15 45.5 110.01 45.5 110.01 49.52 91.74 49.52 91.74 18.66"/><polygon class="cls-1" points="136.44 18.66 140.84 18.66 140.84 45.5 154.71 45.5 154.71 49.52 136.44 49.52 136.44 18.66"/><polygon class="cls-1" points="181.13 18.66 198.58 18.66 198.58 22.59 185.54 22.59 185.54 32.01 198.14 32.01 198.14 35.96 185.54 35.96 185.54 45.55 199 45.55 199 49.48 181.13 49.48 181.13 18.66"/><polygon class="cls-1" points="285.86 18.66 289.98 18.66 289.98 49.52 285.55 49.52 285.55 25.51 276.08 37.44 275.27 37.44 265.69 25.51 265.69 49.52 261.28 49.52 261.28 18.66 265.46 18.66 275.69 31.34 285.86 18.66"/><path class="cls-1" d="M329,18.49h3.09l13.81,31H341.4l-4.11-9.14H324.16l-3.85,9.14h-4.53Zm6.47,18-5-11.18-4.61,11.18Z"/><polygon class="cls-1" points="396.31 18.66 400.5 18.66 400.5 49.52 396.71 49.52 376.12 25.75 376.12 49.52 371.98 49.52 371.98 18.66 375.55 18.66 396.31 42.63 396.31 18.66"/><path class="cls-1" d="M491.8,36.59l-3.35-2A15.2,15.2,0,0,1,484,30.76a7.22,7.22,0,0,1-1.34-4.3,7.58,7.58,0,0,1,2.53-5.92,9.4,9.4,0,0,1,6.55-2.28,12.47,12.47,0,0,1,7.08,2.17v5a10.2,10.2,0,0,0-7.17-3.21,5.88,5.88,0,0,0-3.54,1,3,3,0,0,0-1.39,2.57,3.94,3.94,0,0,0,1,2.59A12.63,12.63,0,0,0,491,30.94l3.37,2Q500,36.32,500,41.53a7.9,7.9,0,0,1-2.48,6,9.07,9.07,0,0,1-6.44,2.32,13.53,13.53,0,0,1-8.31-2.81V41.45Q486.34,46,491,46a5.2,5.2,0,0,0,3.45-1.16,3.61,3.61,0,0,0,1.38-2.89c0-1.88-1.36-3.66-4.06-5.35"/><path class="cls-1" d="M454.89,17.94h0v-.12h0a2,2,0,0,0-3.93,0h0v.1s0,0,0,0,0,0,0,0V36.74a17.52,17.52,0,0,1-.45,5.13,7.31,7.31,0,0,1-2.11,2.68,9.18,9.18,0,0,1-6.12,2,11.14,11.14,0,0,1-4.85-1.11,6.66,6.66,0,0,1-2.88-2.63,13.2,13.2,0,0,1-1.06-6V23.28h0a1.95,1.95,0,0,0-3.88,0h0V36.7A20.81,20.81,0,0,0,430,42a11.1,11.1,0,0,0,1.2,2.83A9.87,9.87,0,0,0,433,46.87a13.72,13.72,0,0,0,9.26,3,13.52,13.52,0,0,0,9.17-3,9.26,9.26,0,0,0,1.79-2.07,11,11,0,0,0,1.15-2.89,20.07,20.07,0,0,0,.5-5.15V17.94"/><path class="cls-1" d="M437.17,29.56c1.28,0,4.23-.3,4.7,3a1.65,1.65,0,0,0,1.63,1.41h.23a1.66,1.66,0,0,0,1.4-1.87c-.6-4.14-3.43-5.7-6.47-5.7V10a1.65,1.65,0,1,0-3.29,0V29.56Z"/><path class="cls-1" d="M442.2,26.06a1.65,1.65,0,0,0,1.65-1.65V7.7a1.65,1.65,0,1,0-3.29,0V24.41a1.65,1.65,0,0,0,1.64,1.65"/><path class="cls-1" d="M447.39,26.63A1.65,1.65,0,0,0,449,25V10a1.65,1.65,0,1,0-3.29,0V25a1.64,1.64,0,0,0,1.64,1.65"/></svg>